#tb 0: 1/25
#media_type 0: video
#codec_id 0: rawvideo
#dimensions 0: 352x288
#sar 0: 0/1
0,          0,          0,        1,   152064, 0x9f9caf3c
0,          1,          1,        1,   152064, 0x0ff688a6
0,          2,          2,        1,   152064, 0x247d4215
0,          3,          3,        1,   152064, 0x6d075b1b
0,          4,          4,        1,   152064, 0x23893f77
0,          5,          5,        1,   152064, 0x46db7dfc
0,          6,          6,        1,   152064, 0x6438c4b9
0,          7,          7,        1,   152064, 0x1f468257
0,          8,          8,        1,   152064, 0xd534ff36
0,          9,          9,        1,   152064, 0xb230f7b8
0,         10,         10,        1,   152064, 0xd8f66983
0,         11,         11,        1,   152064, 0x2068b7a9
0,         12,         12,        1,   152064, 0xd5748d8c
0,         13,         13,        1,   152064, 0x1d701770
0,         14,         14,        1,   152064, 0xe505c973
0,         15,         15,        1,   152064, 0x0ae5a447
0,         16,         16,        1,   152064, 0x3cf356bc
0,         17,         17,        1,   152064, 0x7d735625
0,         18,         18,        1,   152064, 0x3ce6438f
0,         19,         19,        1,   152064, 0xef3d947c
0,         20,         20,        1,   152064, 0xa35872be
0,         21,         21,        1,   152064, 0xcb9d1a37
0,         22,         22,        1,   152064, 0x9ad4cda1
0,         23,         23,        1,   152064, 0xc8d00a24
0,         24,         24,        1,   152064, 0xadab390b
0,         25,         25,        1,   152064, 0x530837a5
0,         26,         26,        1,   152064, 0xfda73274
0,         27,         27,        1,   152064, 0x7a297022
0,         28,         28,        1,   152064, 0x0d5f16a1
0,         29,         29,        1,   152064, 0xb0453e15
0,         30,         30,        1,   152064, 0xdaf2ba1c
0,         31,         31,        1,   152064, 0x55e5f451
0,         32,         32,        1,   152064, 0x723ecbce
0,         33,         33,        1,   152064, 0xb8376dfa
0,         34,         34,        1,   152064, 0xf53d97b7
0,         35,         35,        1,   152064, 0x1e2065cb
0,         36,         36,        1,   152064, 0x79ab0d75
0,         37,         37,        1,   152064, 0xc5da27ed
0,         38,         38,        1,   152064, 0x37c9d744
0,         39,         39,        1,   152064, 0xa8ab8bc3
0,         40,         40,        1,   152064, 0xab16a630
0,         41,         41,        1,   152064, 0xbbd76705
0,         42,         42,        1,   152064, 0xe67b2032
0,         43,         43,        1,   152064, 0xe1e02979
0,         44,         44,        1,   152064, 0xe79260b2
0,         45,         45,        1,   152064, 0xec33b550
0,         46,         46,        1,   152064, 0x679cca25
0,         47,         47,        1,   152064, 0x464b0935
0,         48,         48,        1,   152064, 0xa4c36a2a
0,         49,         49,        1,   152064, 0xe9593764
0,         50,         50,        1,   152064, 0x10f9ff42
0,         51,         51,        1,   152064, 0x6518a6fa
0,         52,         52,        1,   152064, 0xd161e4f3
0,         53,         53,        1,   152064, 0xc9d9be11
0,         54,         54,        1,   152064, 0x0db78ff6
0,         55,         55,        1,   152064, 0xd47d7e0f
0,         56,         56,        1,   152064, 0xdf34e3a3
0,         57,         57,        1,   152064, 0x13b68bd6
0,         58,         58,        1,   152064, 0x90e845bd
0,         59,         59,        1,   152064, 0xb434883a
0,         60,         60,        1,   152064, 0xd8e1de00
0,         61,         61,        1,   152064, 0xc9a3df1f
0,         62,         62,        1,   152064, 0x01476f54
0,         63,         63,        1,   152064, 0xd52824a4
0,         64,         64,        1,   152064, 0x63d43662
0,         65,         65,        1,   152064, 0x40a90d0f
0,         66,         66,        1,   152064, 0x332b22eb
0,         67,         67,        1,   152064, 0x1c267e8c
0,         68,         68,        1,   152064, 0x9be230d3
0,         69,         69,        1,   152064, 0x0ca308e8
0,         70,         70,        1,   152064, 0xfb5c5fdd
0,         71,         71,        1,   152064, 0x0d386358
0,         72,         72,        1,   152064, 0x3c7148b3
0,         73,         73,        1,   152064, 0xc2c07dab
0,         74,         74,        1,   152064, 0x76bbf8eb
0,         75,         75,        1,   152064, 0xc8bac3fa
0,         76,         76,        1,   152064, 0x35ef5e12
0,         77,         77,        1,   152064, 0x5d1fea8d
0,         78,         78,        1,   152064, 0xafbb54ef
0,         79,         79,        1,   152064, 0xf5d3396e
0,         80,         80,        1,   152064, 0xc4f4f8eb
0,         81,         81,        1,   152064, 0x60a17fa1
0,         82,         82,        1,   152064, 0x8804cdf9
0,         83,         83,        1,   152064, 0x3227412f
0,         84,         84,        1,   152064, 0x130e5026
0,         85,         85,        1,   152064, 0xcb17344e
0,         86,         86,        1,   152064, 0x4f0dde70
0,         87,         87,        1,   152064, 0x57422405
0,         88,         88,        1,   152064, 0x48070e40
0,         89,         89,        1,   152064, 0x5c2f134d
0,         90,         90,        1,   152064, 0x123e23e2
0,         91,         91,        1,   152064, 0x393c1185
0,         92,         92,        1,   152064, 0x59919a69
0,         93,         93,        1,   152064, 0xc1dad5c4
0,         94,         94,        1,   152064, 0x49b8c9a9
0,         95,         95,        1,   152064, 0x8dab7b1c
0,         96,         96,        1,   152064, 0x3a63c0c0
0,         97,         97,        1,   152064, 0x224860bc
0,         98,         98,        1,   152064, 0xdc40c9b2
0,         99,         99,        1,   152064, 0xd3a0b8a1
